<?xml version="1.0" standalone="no"?>
<!DOCTYPE svg PUBLIC "-//W3C//DTD SVG 20010904//EN"
 "http://www.w3.org/TR/2001/REC-SVG-20010904/DTD/svg10.dtd">
<svg version="1.0" xmlns="http://www.w3.org/2000/svg"
 width="500.000000pt" height="500.000000pt" viewBox="0 0 500.000000 500.000000"
 preserveAspectRatio="xMidYMid meet">

<g transform="translate(0.000000,500.000000) scale(0.100000,-0.100000)"
fill="#000000" stroke="none">
<path d="M2557 2756 c-55 -20 -101 -59 -136 -116 l-31 -50 39 0 c24 0 51 -9
75 -25 l36 -24 0 24 c0 23 4 25 45 25 l45 0 0 -83 c0 -87 8 -107 45 -107 37 0
45 20 45 107 l0 83 45 0 45 0 0 -135 0 -135 -45 0 c-25 0 -45 4 -45 9 0 6 -17
3 -37 -5 -30 -13 -44 -14 -75 -5 -50 15 -68 51 -68 136 0 36 -2 65 -5 65 -3 0
-17 -7 -30 -16 -20 -13 -28 -14 -39 -5 -8 7 -30 11 -48 9 -25 -2 -35 -9 -42
-31 -20 -57 41 -111 83 -73 15 14 20 13 49 -4 36 -22 34 -43 -7 -65 -73 -37
-163 -21 -199 37 l-19 30 -31 -50 c-17 -27 -32 -58 -33 -68 -5 -35 10 -70 36
-82 40 -18 1596 -16 1648 2 73 26 104 61 206 234 142 239 144 244 131 277 -22
57 20 54 -845 54 -643 0 -807 -3 -838 -13z m383 -251 l0 -185 -45 0 -45 0 0
185 0 185 45 0 45 0 0 -185z m140 109 l0 -36 85 7 84 7 3 -93 3 -94 31 -3 c28
-3 33 1 43 29 6 18 11 61 11 95 l0 64 45 0 45 0 0 -135 0 -135 -45 0 c-35 0
-45 4 -45 17 0 14 -2 14 -21 -3 -28 -26 -99 -26 -128 0 -25 23 -41 75 -41 134
0 41 0 42 -35 42 l-35 0 0 -60 c0 -60 0 -60 30 -60 23 0 31 -5 36 -24 8 -33 0
-44 -42 -52 -40 -7 -90 10 -104 37 -6 10 -10 49 -10 88 0 64 -2 71 -20 71 -16
0 -20 7 -20 35 0 28 4 35 20 35 16 0 20 7 20 35 0 35 0 35 45 35 45 0 45 0 45
-36z m470 -40 c0 -15 2 -15 25 0 38 25 65 21 65 -9 l0 -26 30 22 c36 27 123
36 159 17 36 -19 62 -60 68 -106 l6 -42 -92 0 c-94 0 -109 -8 -67 -35 21 -14
28 -14 59 -1 34 14 36 13 59 -11 23 -24 23 -25 3 -39 -11 -8 -36 -19 -57 -25
-104 -28 -197 46 -185 148 5 45 -1 50 -36 32 -33 -18 -37 -28 -37 -106 l0 -73
-45 0 -45 0 0 135 0 135 45 0 c35 0 45 -4 45 -16z m418 -183 c18 -11 11 -61
-10 -75 -34 -21 -71 26 -54 70 6 15 43 19 64 5z"/>
<path d="M3720 2500 c-10 -19 -8 -20 40 -20 51 0 60 6 38 28 -19 19 -66 15
-78 -8z"/>
<path d="M1214 2676 c-3 -8 -4 -25 -2 -38 2 -18 9 -23 32 -23 36 0 56 27 40
53 -14 22 -62 28 -70 8z"/>
<path d="M1560 2675 c-10 -12 -10 -21 -2 -40 14 -31 56 -34 72 -5 24 44 -38
83 -70 45z"/>
<path d="M1390 2569 c-39 -8 -70 -40 -70 -73 0 -35 26 -62 74 -76 55 -15 73
-32 52 -50 -17 -13 -71 -5 -95 13 -10 9 -17 7 -27 -8 -20 -27 -13 -38 32 -53
83 -28 174 7 174 68 0 34 -29 61 -88 81 -57 19 -63 44 -12 44 19 -1 44 -4 56
-8 16 -6 23 -2 32 17 9 20 8 26 -6 31 -35 15 -88 21 -122 14z"/>
<path d="M1825 2572 c-11 -2 -30 -13 -42 -25 l-23 -20 0 21 c0 19 -6 22 -40
22 l-40 0 0 -130 0 -130 40 0 40 0 0 80 c0 67 3 83 20 100 24 24 39 25 66 6
16 -12 20 -29 23 -100 l3 -86 34 0 34 0 0 104 c0 88 -3 107 -20 128 -20 26
-57 37 -95 30z"/>
<path d="M698 2554 c-37 -19 -58 -63 -58 -118 0 -109 135 -165 225 -94 l26 21
-26 17 c-25 17 -29 17 -56 1 -26 -14 -31 -15 -56 -1 -35 20 -44 81 -17 111 18
20 69 26 79 9 9 -14 27 -12 50 6 20 15 20 16 -8 40 -22 19 -39 24 -80 24 -29
-1 -64 -7 -79 -16z"/>
<path d="M902 2464 c3 -102 4 -107 31 -130 35 -30 85 -31 121 -3 l26 20 0 -20
c0 -18 6 -21 40 -21 l40 0 0 130 0 130 -40 0 -40 0 0 -79 c0 -87 -12 -111 -55
-111 -34 0 -45 27 -45 114 l0 76 -41 0 -41 0 4 -106z"/>
<path d="M1210 2440 l0 -130 40 0 40 0 0 130 0 130 -40 0 -40 0 0 -130z"/>
<path d="M1550 2440 l0 -130 40 0 40 0 0 130 0 130 -40 0 -40 0 0 -130z"/>
<path d="M2018 2552 c-56 -34 -74 -120 -38 -180 38 -61 141 -80 206 -37 26 17
26 17 6 37 -16 16 -23 18 -40 9 -31 -17 -77 -13 -95 7 -10 10 -17 22 -17 25 0
4 43 7 96 7 l96 0 -7 33 c-12 58 -16 66 -46 92 -37 31 -118 35 -161 7z m116
-48 c31 -31 20 -44 -39 -44 -59 0 -68 10 -38 42 20 22 56 23 77 2z"/>
</g>
</svg>
