<?xml version="1.0" encoding="UTF-8"?>
<svg version="1.1" xmlns="http://www.w3.org/2000/svg" width="500" height="500">
<path d="M0 0 C165 0 330 0 500 0 C500 165 500 330 500 500 C335 500 170 500 0 500 C0 335 0 170 0 0 Z " fill="#FEFEFE" transform="translate(0,0)"/>
<path d="M0 0 C0.99954499 -0.00785502 0.99954499 -0.00785502 2.01928282 -0.01586872 C4.24472804 -0.03083083 6.46994257 -0.03157302 8.69543457 -0.03224182 C10.29395433 -0.03986566 11.89247043 -0.04829354 13.49098206 -0.0574646 C17.82766735 -0.07938929 22.16428216 -0.0882053 26.50101662 -0.09329104 C29.21056071 -0.09693579 31.92008636 -0.10317634 34.62962341 -0.11029243 C44.08239554 -0.13477596 53.53511283 -0.1478373 62.98791504 -0.15138245 C71.80003275 -0.15502104 80.61180289 -0.18494225 89.4238143 -0.22678703 C96.99082176 -0.26146062 104.55771381 -0.27693034 112.12480021 -0.27762848 C116.64384675 -0.27842204 121.16253882 -0.28719723 125.6815033 -0.31562614 C129.93012289 -0.34175811 134.17809278 -0.34403968 138.42675591 -0.3279705 C139.9856298 -0.32615234 141.54454066 -0.33287997 143.10333443 -0.34878922 C145.23250311 -0.36919491 147.35938637 -0.3587351 149.48852539 -0.34057617 C151.27489788 -0.34359316 151.27489788 -0.34359316 153.0973587 -0.3466711 C157.18844275 0.46042387 158.70201369 2.0330915 161.2442627 5.27415466 C161.55365394 11.75550451 158.01873769 16.82780093 154.8067627 22.21165466 C154.2676123 23.13027283 153.72846191 24.04889099 153.17297363 24.99534607 C152.06952678 26.86678934 150.96000667 28.73466531 149.84436035 30.59886169 C148.38251571 33.04300169 146.94271037 35.49880305 145.50598145 37.95774841 C140.31887961 46.69794547 135.35229447 54.87017355 125.2442627 58.27415466 C122.0973587 58.53421688 122.0973587 58.53421688 118.48852539 58.54830933 C117.4889804 58.55616434 117.4889804 58.55616434 116.46924257 58.56417805 C114.24379735 58.57914015 112.01858282 58.57988234 109.79309082 58.58055115 C108.19457106 58.58817498 106.59605497 58.59660287 104.99754333 58.60577393 C100.66085804 58.62769861 96.32424323 58.63651462 91.98750877 58.64160037 C89.27796468 58.64524511 86.56843903 58.65148567 83.85890198 58.65860176 C74.40612985 58.68308529 64.95341256 58.69614663 55.50061035 58.69969177 C46.68849264 58.70333036 37.8767225 58.73325158 29.06471109 58.77509636 C21.49770363 58.80976995 13.93081158 58.82523967 6.36372519 58.82593781 C1.84467864 58.82673136 -2.67401343 58.83550656 -7.19297791 58.86393547 C-11.4415975 58.89006743 -15.68956739 58.892349 -19.93823051 58.87627983 C-21.49710441 58.87446167 -23.05601527 58.88118929 -24.61480904 58.89709854 C-26.74397772 58.91750424 -28.87086097 58.90704442 -31 58.8888855 C-32.19091499 58.89089683 -33.38182999 58.89290815 -34.60883331 58.89498043 C-38.69981836 58.08790499 -40.21184915 56.51359987 -42.7557373 53.27415466 C-43.14513613 46.6543747 -39.25913559 41.59889151 -35.7557373 36.27415466 C-35.1782373 37.03727966 -34.6007373 37.80040466 -34.0057373 38.58665466 C-31.28814516 41.8326675 -29.42220287 44.02083203 -25.13464355 44.67259216 C-17.91376262 44.73155218 -17.91376262 44.73155218 -11.7557373 41.27415466 C-11.4257373 40.61415466 -11.0957373 39.95415466 -10.7557373 39.27415466 C-11.7457373 38.61415466 -12.7357373 37.95415466 -13.7557373 37.27415466 C-15.09959818 37.56212485 -16.4315086 37.90631336 -17.7557373 38.27415466 C-21.3807373 38.52415466 -21.3807373 38.52415466 -24.7557373 38.27415466 C-27.21897799 34.57929363 -27.14565419 32.64122375 -26.7557373 28.27415466 C-25.5682373 26.33665466 -25.5682373 26.33665466 -23.7557373 25.27415466 C-20.13895046 24.81046404 -17.86995139 25.42869447 -14.7557373 27.27415466 C-13.7657373 26.61415466 -12.7757373 25.95415466 -11.7557373 25.27415466 C-11.7557373 24.28415466 -11.7557373 23.29415466 -11.7557373 22.27415466 C-16.11773917 19.82717801 -19.78267214 18.77146118 -24.7557373 18.27415466 C-21.68206503 10.79043086 -16.9556725 4.81703129 -9.5331955 1.18728542 C-6.22452579 0.09951096 -3.48370285 0.01360381 0 0 Z " fill="#F63C7F" transform="translate(263.7557373046875,222.72584533691406)"/>
<path d="M0 0 C2.97 0 5.94 0 9 0 C9.33 0.99 9.66 1.98 10 3 C10.86625 2.2575 10.86625 2.2575 11.75 1.5 C14 0 14 0 18 0 C18.33 1.65 18.66 3.3 19 5 C19.78375 4.360625 20.5675 3.72125 21.375 3.0625 C25.54195391 -0.21153522 28.79808082 -0.51436887 34 0 C38.83451185 1.58051349 40.89560891 3.73258626 43.3359375 7.98828125 C44 10 44 10 44 16 C38.06 16.33 32.12 16.66 26 17 C26.66 17.99 27.32 18.98 28 20 C31.94726562 20.42905061 34.61242079 20.08466413 38 18 C39.32 19.65 40.64 21.3 42 23 C37.50368583 26.78636982 34.27118374 27.58015313 28.40234375 27.32421875 C24.2056761 26.75783921 21.27272559 25.32701246 18.3515625 22.28125 C16.57709267 19.28619109 16.69986481 17.20414572 16.8125 13.75 C16.83957031 12.67234375 16.86664063 11.5946875 16.89453125 10.484375 C16.92933594 9.66453125 16.96414063 8.8446875 17 8 C13.20452079 8.96776098 13.20452079 8.96776098 10 11 C9.76321284 13.69235776 9.57801975 16.36498156 9.4375 19.0625 C9.39431641 19.82111328 9.35113281 20.57972656 9.30664062 21.36132812 C9.20026367 23.24065438 9.09960066 25.12030244 9 27 C6.03 27 3.06 27 0 27 C0 18.09 0 9.18 0 0 Z " fill="#FEF6F9" transform="translate(346,241)"/>
<path d="M0 0 C2.97 0 5.94 0 9 0 C9.06058594 1.20398438 9.12117188 2.40796875 9.18359375 3.6484375 C9.26799732 5.22397077 9.35264541 6.79949096 9.4375 8.375 C9.47681641 9.1690625 9.51613281 9.963125 9.55664062 10.78125 C9.68893404 15.02601221 9.68893404 15.02601221 11 19 C12.98 19 14.96 19 17 19 C17.33 12.73 17.66 6.46 18 0 C20.97 0 23.94 0 27 0 C27 8.91 27 17.82 27 27 C24.03 27 21.06 27 18 27 C17.67 26.34 17.34 25.68 17 25 C16.01 25.66 15.02 26.32 14 27 C9.65133171 27.68873936 6.11969282 27.81177729 2.5 25.1875 C0.22133406 21.86444551 -0.1226436 19.25504487 -0.09765625 15.33203125 C-0.09443359 14.43935547 -0.09121094 13.54667969 -0.08789062 12.62695312 C-0.07951172 11.69818359 -0.07113281 10.76941406 -0.0625 9.8125 C-0.05798828 8.87212891 -0.05347656 7.93175781 -0.04882812 6.96289062 C-0.03704645 4.64189992 -0.01911114 2.32094193 0 0 Z " fill="#FEF4F8" transform="translate(254,241)"/>
<path d="M0 0 C3.36637548 2.29525601 4.92706799 4.22913599 6.75 7.875 C6.75 10.185 6.75 12.495 6.75 14.875 C0.81 14.875 -5.13 14.875 -11.25 14.875 C-10.92 15.865 -10.59 16.855 -10.25 17.875 C-5.9335078 18.63673392 -2.50566547 19.03563604 1.75 17.875 C2.74 19.195 3.73 20.515 4.75 21.875 C2.12710698 24.74769236 0.18709274 25.75932071 -3.7734375 26.078125 C-13.65998025 26.24064351 -13.65998025 26.24064351 -17.25 22.875 C-20.32201027 18.53181306 -20.82826933 14.47354165 -20.671875 9.28125 C-19.85614935 4.62859257 -17.13809143 2.30734523 -13.4375 -0.5 C-8.65372203 -1.86679371 -4.61162496 -1.59633172 0 0 Z " fill="#F64283" transform="translate(216.25,243.125)"/>
<path d="M0 0 C2.97 0 5.94 0 9 0 C9 8.91 9 17.82 9 27 C6.03 27 3.06 27 0 27 C-0.33 26.01 -0.66 25.02 -1 24 C-1.60521484 24.72896484 -1.60521484 24.72896484 -2.22265625 25.47265625 C-4.96911556 27.83280041 -7.34723048 27.47118312 -10.83984375 27.36328125 C-13 27 -13 27 -15.5 25.125 C-17.73459572 21.95932273 -18.12190454 20.26091788 -18.09765625 16.4296875 C-18.09443359 15.53378906 -18.09121094 14.63789063 -18.08789062 13.71484375 C-18.07951172 12.77769531 -18.07113281 11.84054688 -18.0625 10.875 C-18.05798828 9.93011719 -18.05347656 8.98523438 -18.04882812 8.01171875 C-18.03702357 5.67441613 -18.02055759 3.33723939 -18 1 C-15.36 1 -12.72 1 -10 1 C-9.95101563 2.13179687 -9.90203125 3.26359375 -9.8515625 4.4296875 C-9.77653486 5.91148339 -9.70098703 7.393253 -9.625 8.875 C-9.5940625 9.62136719 -9.563125 10.36773437 -9.53125 11.13671875 C-9.44356169 15.53473188 -9.44356169 15.53473188 -7 19 C-4.42459787 18.83492354 -4.42459787 18.83492354 -2 18 C-0.414131 14.828262 -0.62133555 11.36486178 -0.4375 7.875 C-0.39431641 7.12089844 -0.35113281 6.36679688 -0.30664062 5.58984375 C-0.2005168 3.72678112 -0.09974999 1.86341476 0 0 Z " fill="#FEF6F9" transform="translate(334,241)"/>
<path d="M0 0 C2.75649377 0.84226198 3.76576898 1.71594478 5.59765625 3.9375 C7.63798044 8.39324977 7.32076041 12.4775389 7.1875 17.3125 C7.16719727 18.70952148 7.16719727 18.70952148 7.14648438 20.13476562 C7.1112742 22.42342712 7.05747134 24.71178929 7 27 C4.03 27 1.06 27 -2 27 C-2.06058594 25.78441406 -2.12117188 24.56882812 -2.18359375 23.31640625 C-2.26798332 21.73175772 -2.3526321 20.14712298 -2.4375 18.5625 C-2.47681641 17.76005859 -2.51613281 16.95761719 -2.55664062 16.13085938 C-2.4054296 12.24760439 -2.4054296 12.24760439 -4 9 C-6.45809998 8.7499227 -6.45809998 8.7499227 -9 9 C-11.93447357 11.93447357 -11.46158423 15.18259456 -11.625 19.125 C-11.68300781 20.25615234 -11.68300781 20.25615234 -11.7421875 21.41015625 C-11.83651031 23.27303184 -11.91934662 25.13648255 -12 27 C-14.64 27 -17.28 27 -20 27 C-20 18.42 -20 9.84 -20 1 C-17.36 1 -14.72 1 -12 1 C-11.67 1.66 -11.34 2.32 -11 3 C-10.484375 2.505 -9.96875 2.01 -9.4375 1.5 C-6.12167697 -0.54050648 -3.83308969 -0.34224015 0 0 Z " fill="#F64082" transform="translate(188,242)"/>
<path d="M0 0 C2.64 0 5.28 0 8 0 C8.04898438 1.13179687 8.09796875 2.26359375 8.1484375 3.4296875 C8.22346514 4.91148339 8.29901297 6.393253 8.375 7.875 C8.4059375 8.62136719 8.436875 9.36773437 8.46875 10.13671875 C8.55643831 14.53473188 8.55643831 14.53473188 11 18 C13.57540213 17.83492354 13.57540213 17.83492354 16 17 C17.52106634 13.95786733 17.37429338 10.71952428 17.5625 7.375 C17.60568359 6.66859375 17.64886719 5.9621875 17.69335938 5.234375 C17.79944751 3.48981463 17.90022889 1.74493303 18 0 C20.64 0 23.28 0 26 0 C26 8.58 26 17.16 26 26 C23.36 26 20.72 26 18 26 C17.67 25.01 17.34 24.02 17 23 C16.39478516 23.72896484 16.39478516 23.72896484 15.77734375 24.47265625 C13.03088444 26.83280041 10.65276952 26.47118312 7.16015625 26.36328125 C5 26 5 26 2.5 24.125 C0.26540428 20.95932273 -0.12190454 19.26091788 -0.09765625 15.4296875 C-0.09443359 14.53378906 -0.09121094 13.63789063 -0.08789062 12.71484375 C-0.07951172 11.77769531 -0.07113281 10.84054688 -0.0625 9.875 C-0.05798828 8.93011719 -0.05347656 7.98523438 -0.04882812 7.01171875 C-0.03702357 4.67441613 -0.02055759 2.33723939 0 0 Z " fill="#F63B7F" transform="translate(90,243)"/>
<path d="M0 0 C1.66514624 0.71896335 3.29571839 1.51699982 4.91796875 2.328125 C4.25796875 3.978125 3.59796875 5.628125 2.91796875 7.328125 C-0.71203125 6.668125 -4.34203125 6.008125 -8.08203125 5.328125 C-7.75203125 6.318125 -7.42203125 7.308125 -7.08203125 8.328125 C-4.82415234 9.50194624 -4.82415234 9.50194624 -2.14453125 10.390625 C2.72514364 12.13529989 2.72514364 12.13529989 4.91796875 14.328125 C5.25743384 17.99434797 5.40802656 20.44135372 3.60546875 23.703125 C0.16570254 27.01549246 -4.00424862 26.58884513 -8.49609375 26.5625 C-12.1971934 26.2270529 -14.803555 25.03863435 -18.08203125 23.328125 C-17.42203125 21.678125 -16.76203125 20.028125 -16.08203125 18.328125 C-11.79203125 18.988125 -7.50203125 19.648125 -3.08203125 20.328125 C-3.08203125 19.338125 -3.08203125 18.348125 -3.08203125 17.328125 C-3.6853125 17.23015625 -4.28859375 17.1321875 -4.91015625 17.03125 C-8.60140602 16.34062908 -11.48188822 15.72334114 -14.64453125 13.640625 C-16.70243659 10.33008163 -16.62795583 8.14959709 -16.08203125 4.328125 C-11.85007238 -1.03235623 -6.43332893 -2.07604611 0 0 Z " fill="#F64182" transform="translate(148.08203125,242.671875)"/>
<path d="M0 0 C1.19503055 0.65307172 2.38539824 1.31514079 3.5625 2 C3.2325 3.32 2.9025 4.64 2.5625 6 C-0.6886647 6.88668128 -2.73727294 6.95427192 -6.125 6.4375 C-7.218125 6.293125 -8.31125 6.14875 -9.4375 6 C-11.82535276 7.94234089 -11.82535276 7.94234089 -11.625 11.5 C-11.67881237 14.84964703 -11.67881237 14.84964703 -10.4375 17 C-5.76913215 17.18250119 -5.76913215 17.18250119 -1.25 16.25 C-0.3528125 16.12625 -0.3528125 16.12625 0.5625 16 C2.8125 17.9375 2.8125 17.9375 4.5625 20 C1.69008499 23.0705126 -0.16594285 24.77500767 -4.48828125 25.203125 C-9.5780066 25.30861154 -13.06969274 24.9118715 -17.4375 22 C-21.23475025 17.94838849 -20.98949923 14.25696852 -20.859375 8.921875 C-20.2169791 4.47268858 -18.81389008 2.91597325 -15.4375 0 C-10.57009721 -3.56942871 -5.10088754 -2.54592971 0 0 Z " fill="#F63F81" transform="translate(84.4375,244)"/>
<path d="M0 0 C2.97 0 5.94 0 9 0 C9 2.64 9 5.28 9 8 C10.98 8 12.96 8 15 8 C15 9.65 15 11.3 15 13 C13.02 13 11.04 13 9 13 C9 17.29 9 21.58 9 26 C10.98 26 12.96 26 15 26 C15.33 27.98 15.66 29.96 16 32 C13.58006642 33.20996679 11.8253367 33.27083271 9.125 33.375 C8.26132812 33.42398438 7.39765625 33.47296875 6.5078125 33.5234375 C4 33 4 33 1.6953125 30.96484375 C-0.40798394 27.28649814 -0.45438116 24.29477524 -0.25 20.1875 C-0.23195313 19.49462891 -0.21390625 18.80175781 -0.1953125 18.08789062 C-0.14851064 16.39132336 -0.07677624 14.69547524 0 13 C-1.32 13 -2.64 13 -4 13 C-4 11.35 -4 9.7 -4 8 C-2.68 8 -1.36 8 0 8 C0 5.36 0 2.72 0 0 Z " fill="#FEF5F8" transform="translate(299,235)"/>
<path d="M0 0 C2.97 0 5.94 0 9 0 C9 12.21 9 24.42 9 37 C6.03 37 3.06 37 0 37 C0 24.79 0 12.58 0 0 Z " fill="#FEF3F7" transform="translate(285,231)"/>
<path d="M0 0 C2.97 0 5.94 0 9 0 C9.33 0.99 9.66 1.98 10 3 C10.598125 2.505 11.19625 2.01 11.8125 1.5 C14 0 14 0 17 0 C17 2.64 17 5.28 17 8 C16.030625 8.309375 15.06125 8.61875 14.0625 8.9375 C11.15934208 9.69523342 11.15934208 9.69523342 10 11 C9.76321284 13.69235776 9.57801975 16.36498156 9.4375 19.0625 C9.39431641 19.82111328 9.35113281 20.57972656 9.30664062 21.36132812 C9.20026367 23.24065438 9.09960066 25.12030244 9 27 C6.03 27 3.06 27 0 27 C0 18.09 0 9.18 0 0 Z " fill="#FEF3F7" transform="translate(346,241)"/>
<path d="M0 0 C2.97 0 5.94 0 9 0 C9 8.91 9 17.82 9 27 C6.03 27 3.06 27 0 27 C0 18.09 0 9.18 0 0 Z " fill="#F64887" transform="translate(155,242)"/>
<path d="M0 0 C2.97 0 5.94 0 9 0 C9 8.91 9 17.82 9 27 C6.03 27 3.06 27 0 27 C0 18.09 0 9.18 0 0 Z " fill="#F64887" transform="translate(120,242)"/>
<path d="M0 0 C0.05398987 2.27057377 0.09278742 4.54151288 0.125 6.8125 C0.14820313 8.07707031 0.17140625 9.34164062 0.1953125 10.64453125 C0 14 0 14 -2 17 C-2.12375 15.9275 -2.2475 14.855 -2.375 13.75 C-2.81117143 11.75311528 -2.81117143 11.75311528 -4 10 C-6.54905563 8.66763647 -9.02577022 7.82319748 -11.78515625 7.01953125 C-14 6 -14 6 -14.80859375 3.88671875 C-14.87175781 3.26410156 -14.93492187 2.64148438 -15 2 C-10.78121808 1.80377759 -7.82989106 2.19769832 -4 4 C-3.67 3.01 -3.34 2.02 -3 1 C-1 0 -1 0 0 0 Z " fill="#FEF2F7" transform="translate(155,246)"/>
<path d="M0 0 C4.55555556 0.55555556 4.55555556 0.55555556 6 2 C6.1875 4.4375 6.1875 4.4375 6 7 C4 9 4 9 1.5 9.25 C-1 9 -1 9 -3 7 C-2.67028521 3.70285207 -2.3773161 2.3773161 0 0 Z " fill="#F64686" transform="translate(123,230)"/>
<path d="M0 0 C2 0.6875 2 0.6875 4 2.6875 C3.44444444 7.24305556 3.44444444 7.24305556 2 8.6875 C-0.4375 8.875 -0.4375 8.875 -3 8.6875 C-3.66 8.0275 -4.32 7.3675 -5 6.6875 C-4.75 3.625 -4.75 3.625 -4 0.6875 C-2 -0.3125 -2 -0.3125 0 0 Z " fill="#F64485" transform="translate(160,230.3125)"/>
<path d="M0 0 C5.94 0 11.88 0 18 0 C18 0.33 18 0.66 18 1 C16.35 1 14.7 1 13 1 C13 1.66 13 2.32 13 3 C8.67265609 5.22923777 5.71599818 4.92470553 1 4 C0.67 2.68 0.34 1.36 0 0 Z " fill="#FEF3F7" transform="translate(205,258)"/>
<path d="M0 0 C6.27 0 12.54 0 19 0 C19 0.33 19 0.66 19 1 C17.3603125 1.433125 17.3603125 1.433125 15.6875 1.875 C11.95986155 2.81893204 11.95986155 2.81893204 9 5 C6 5.4375 6 5.4375 3 5 C2.01 3.35 1.02 1.7 0 0 Z " fill="#F64786" transform="translate(371,257)"/>
<path d="M0 0 C4.55555556 0.55555556 4.55555556 0.55555556 6 2 C6.125 4.5 6.125 4.5 6 7 C5 8 5 8 2 8.125 C-1 8 -1 8 -2 7 C-2.1875 4.5625 -2.1875 4.5625 -2 2 C-1.34 1.34 -0.68 0.68 0 0 Z " fill="#FEF2F6" transform="translate(392,260)"/>
<path d="M0 0 C2.5625 0.1875 2.5625 0.1875 4.5625 2.1875 C4.5625 3.1775 4.5625 4.1675 4.5625 5.1875 C1.2625 5.1875 -2.0375 5.1875 -5.4375 5.1875 C-2.9575 0.2275 -2.9575 0.2275 0 0 Z " fill="#F64988" transform="translate(376.4375,246.8125)"/>
<path d="M0 0 C2.5625 0.1875 2.5625 0.1875 4.5625 2.1875 C4.5625 3.1775 4.5625 4.1675 4.5625 5.1875 C1.5925 5.1875 -1.3775 5.1875 -4.4375 5.1875 C-3.20220588 0.24632353 -3.20220588 0.24632353 0 0 Z " fill="#FEF4F7" transform="translate(209.4375,247.8125)"/>
</svg>
