 <svg  version="1.0" xmlns="http://www.w3.org/2000/svg"  width="300.000000pt" height="300.000000pt" viewBox="0 0 300.000000 300.000000"  preserveAspectRatio="xMidYMid meet">  <g transform="translate(0.000000,300.000000) scale(0.050000,-0.050000)" fill="#ea3977" stroke="none"> <path d="M3001 3275 c-35 -25 -83 -74 -105 -110 l-40 -65 58 0 c31 0 79 -15 105 -34 45 -31 47 -31 35 0 -10 27 -1 34 47 34 58 0 59 -1 59 -110 0 -104 3 -110 50 -110 47 0 50 6 50 110 0 108 1 110 57 110 l58 0 0 -160 0 -160 -58 0 c-31 0 -57 9 -57 20 0 12 -16 11 -39 -4 -81 -51 -150 1 -157 116 l-6 102 -104 -2 c-96 -2 -104 -6 -110 -54 -8 -72 45 -115 100 -80 63 39 123 -23 65 -67 -63 -48 -163 -38 -222 20 -28 28 -53 49 -55 45 -168 -265 -193 -259 983 -252 1155 7 1027 -28 1242 338 230 391 312 358 -898 358 l-993 0 -65 -45z m519 -275 l0 -220 -50 0 -50 0 0 220 0 220 50 0 50 0 0 -220z m180 132 c0 -47 5 -48 100 -38 l100 11 0 -113 c0 -106 3 -112 50 -112 47 0 50 6 50 110 0 107 2 110 55 110 l55 0 0 -160 0 -160 -55 0 c-30 0 -55 11 -55 24 0 19 -5 19 -24 0 -86 -86 -181 -6 -179 151 1 63 -5 105 -13 92 -8 -12 -30 -26 -50 -30 -20 -4 -36 -14 -35 -22 1 -8 1 -41 1 -73 0 -41 12 -60 42 -68 61 -16 36 -63 -37 -70 -83 -8 -125 51 -110 157 8 64 4 79 -22 79 -40 0 -44 52 -5 67 18 6 25 27 18 52 -9 35 -1 41 52 41 52 0 62 -8 62 -48z m560 -56 c0 -19 5 -19 24 0 34 34 76 30 76 -7 0 -28 4 -28 44 0 73 51 186 40 235 -22 75 -95 57 -127 -71 -127 -80 0 -109 -7 -103 -25 5 -14 39 -25 77 -25 96 -1 131 -26 84 -61 -119 -90 -309 28 -272 169 12 47 1 51 -55 21 -31 -16 -39 -42 -39 -120 0 -92 -3 -99 -50 -99 -49 0 -50 3 -50 160 0 157 1 160 50 160 28 0 50 -11 50 -24z m510 -246 c0 -26 -16 -42 -45 -46 -45 -7 -65 49 -31 83 27 27 76 2 76 -37z"/> <path d="M4485 3027 c-44 -18 -28 -67 22 -67 60 0 78 19 50 53 -23 28 -32 30 -72 14z"/> <path d="M1453 3227 c-25 -26 -13 -83 21 -96 43 -16 91 32 75 75 -13 34 -70 46 -96 21z"/> <path d="M1873 3227 c-25 -26 -13 -83 21 -96 47 -18 95 45 63 82 -24 29 -62 35 -84 14z"/> <path d="M850 3077 c-121 -66 -126 -227 -9 -288 77 -39 126 -37 182 11 58 49 22 84 -69 66 -86 -17 -126 59 -63 123 25 24 41 26 72 10 29 -16 48 -15 70 4 70 58 -93 123 -183 74z"/> <path d="M1080 2970 c0 -177 72 -254 170 -182 32 23 42 23 66 -1 54 -54 74 -17 80 150 6 163 6 163 -45 163 -47 0 -51 -7 -51 -95 -1 -193 -106 -211 -116 -20 -6 107 -9 115 -55 115 -47 0 -49 -5 -49 -130z"/> <path d="M1447 3069 c-31 -79 4 -299 48 -305 44 -7 45 -2 45 163 0 161 -2 170 -42 167 -24 -1 -47 -13 -51 -25z"/> <path d="M1624 3069 c-77 -54 -42 -144 71 -178 78 -24 52 -57 -33 -44 -58 10 -81 5 -89 -16 -14 -37 104 -78 174 -60 120 30 122 150 3 189 -91 30 -92 69 -2 54 87 -14 118 37 40 67 -71 27 -112 24 -164 -12z"/> <path d="M1860 2932 c0 -170 1 -172 50 -172 49 0 50 3 50 160 0 88 -8 160 -18 160 -10 0 -33 5 -50 12 -28 11 -32 -11 -32 -160z"/> <path d="M2020 2950 c0 -82 0 -157 0 -165 0 -8 20 -15 45 -15 40 0 46 12 55 110 9 101 14 110 60 110 47 0 50 -7 52 -110 2 -146 93 -173 104 -31 16 190 -52 286 -165 235 -31 -14 -54 -15 -61 -3 -48 77 -90 16 -90 -131z"/> <path d="M2413 3059 c-148 -117 -4 -348 174 -280 70 27 59 70 -19 73 -153 4 -152 48 2 48 122 0 133 17 81 118 -46 89 -154 107 -238 41z m162 -74 c6 -17 -15 -25 -66 -25 -64 0 -71 4 -48 31 29 35 102 31 114 -6z"/> </g> </svg> 